HIERARCHY
ROOT Hips
{
	OFFSET 0.000000 0.000000 0.000000
	CHANNELS 6 Xposition Yposition Zposition Zrotation Yrotation Xrotation 
	JOINT LHipJoint
	{
		OFFSET 0.000000 0.000000 0.000000
		CHANNELS 3 Zrotation Yrotation Xrotation
		JOINT LeftUpLeg
		{
			OFFSET 1.363060 -1.794630 0.839290
			CHANNELS 3 Zrotation Yrotation Xrotation
			JOINT LeftLeg
			{
				OFFSET 2.448110 -6.726130 0.000000
				CHANNELS 3 Zrotation Yrotation Xrotation
				JOINT LeftFoot
				{
					OFFSET 2.562200 -7.039590 0.000000
					CHANNELS 3 Zrotation Yrotation Xrotation
					JOINT LeftToeBase
					{
						OFFSET 0.157640 -0.433110 2.322550
						CHANNELS 3 Zrotation Yrotation Xrotation
						End Site
						{
							OFFSET 0.000000 0.000000 0.000000
						}
					}
				}
			}
		}
	}
	JOINT RHipJoint
	{
		OFFSET 0.000000 0.000000 0.000000
		CHANNELS 3 Zrotation Yrotation Xrotation
		JOINT RightUpLeg
		{
			OFFSET -1.305520 -1.794630 0.839290
			CHANNELS 3 Zrotation Yrotation Xrotation
			JOINT RightLeg
			{
				OFFSET -2.542530 -6.985550 0.000000
				CHANNELS 3 Zrotation Yrotation Xrotation
				JOINT RightFoot
				{
					OFFSET -2.568260 -7.056230 0.000000
					CHANNELS 3 Zrotation Yrotation Xrotation
					JOINT RightToeBase
					{
						OFFSET -0.164730 -0.452590 2.363150
						CHANNELS 3 Zrotation Yrotation Xrotation
						End Site
						{
							OFFSET 0.000000 0.000000 0.000000
						}
					}
				}
			}
		}
	}
	JOINT LowerBack
	{
		OFFSET 0.000000 0.000000 0.000000
		CHANNELS 3 Zrotation Yrotation Xrotation
		JOINT Spine
		{
			OFFSET 0.028270 2.035590 -0.193380
			CHANNELS 3 Zrotation Yrotation Xrotation
			JOINT Spine1
			{
				OFFSET 0.056720 2.048850 -0.042750
				CHANNELS 3 Zrotation Yrotation Xrotation
				JOINT Neck
				{
					OFFSET 0.000000 0.000000 0.000000
					CHANNELS 3 Zrotation Yrotation Xrotation
					JOINT Neck1
					{
						OFFSET -0.054170 1.746240 0.172020
						CHANNELS 3 Zrotation Yrotation Xrotation
						JOINT Head
						{
							OFFSET 0.104070 1.761360 -0.123970
							CHANNELS 3 Zrotation Yrotation Xrotation
							End Site
							{
								OFFSET 0.000000 0.000000 0.000000
							}
						}
					}
				}
				JOINT LeftShoulder
				{
					OFFSET 0.000000 0.000000 0.000000
					CHANNELS 3 Zrotation Yrotation Xrotation
					JOINT LeftArm
					{
						OFFSET 3.362410 1.200890 -0.311210
						CHANNELS 3 Zrotation Yrotation Xrotation
						JOINT LeftForeArm
						{
							OFFSET 4.983000 -0.000000 -0.000000
							CHANNELS 3 Zrotation Yrotation Xrotation
							JOINT LeftHand
							{
								OFFSET 3.483560 -0.000000 -0.000000
								CHANNELS 3 Zrotation Yrotation Xrotation
								JOINT LeftFingerBase
								{
									OFFSET 0.000000 0.000000 0.000000
									CHANNELS 3 Zrotation Yrotation Xrotation
									JOINT LeftHandIndex1
									{
										OFFSET 0.715260 -0.000000 -0.000000
										CHANNELS 3 Zrotation Yrotation Xrotation
										End Site
										{
											OFFSET 0.000000 0.000000 0.000000
										}
									}
								}
								JOINT LThumb
								{
									OFFSET 0.000000 0.000000 0.000000
									CHANNELS 3 Zrotation Yrotation Xrotation
									End Site
									{
										OFFSET 0.000000 0.000000 0.000000
									}
								}
							}
						}
					}
				}
				JOINT RightShoulder
				{
					OFFSET 0.000000 0.000000 0.000000
					CHANNELS 3 Zrotation Yrotation Xrotation
					JOINT RightArm
					{
						OFFSET -3.136600 1.374050 -0.404650
						CHANNELS 3 Zrotation Yrotation Xrotation
						JOINT RightForeArm
						{
							OFFSET -5.241900 -0.000000 -0.000000
							CHANNELS 3 Zrotation Yrotation Xrotation
							JOINT RightHand
							{
								OFFSET -3.444170 -0.000000 -0.000000
								CHANNELS 3 Zrotation Yrotation Xrotation
								JOINT RightFingerBase
								{
									OFFSET 0.000000 0.000000 0.000000
									CHANNELS 3 Zrotation Yrotation Xrotation
									JOINT RightHandIndex1
									{
										OFFSET -0.622530 -0.000000 -0.000000
										CHANNELS 3 Zrotation Yrotation Xrotation
										End Site
										{
											OFFSET 0.000000 0.000000 0.000000
										}
									}
								}
								JOINT RThumb
								{
									OFFSET 0.000000 0.000000 0.000000
									CHANNELS 3 Zrotation Yrotation Xrotation
									End Site
									{
										OFFSET 0.000000 0.000000 0.000000
									}
								}
							}
						}
					}
				}
			}
		}
	}
}
MOTION
Frames: 12
Frame Time: 0.008333
4.300885 17.385641 1.098377 -176.025600 -57.360529 -162.587044 -11.298738 2.115070 -4.684706 -14.217621 34.097018 -21.623445 -3.782250 -1.053923 -5.457637 1.669014 13.792224 2.613380 2.781300 0.000001 -40.231800 9.185756 0.119782 4.784634 -1.785757 13.518230 -25.228015 2.867132 1.454373 -4.308923 1.348546 5.851496 15.120971 1.378601 -0.000000 -66.685801 1.464006 -6.218008 0.451164 0.423585 -6.279909 -1.814444 -4.142376 -6.358159 3.844020 13.799439 -19.979555 -8.179668 -0.881239 -0.047945 -0.174076 0.000000 0.000000 0.000000 29.558597 0.722692 3.691675 18.190217 -27.393209 -86.195967 1.173034 1.634259 -0.072979 10.927552 10.613732 1.055903 -0.406652 -0.016469 0.000000 0.000000 0.000000 0.000000 0.000000 0.000000 0.000000 9.381897 -21.551014 -2.864355 64.359270 16.375231 41.106730 179.906371 64.014325 179.956586 -7.343612 5.915975 -0.420233 0.167943 -0.489872 0.000000 0.000000 0.000000 0.000000 0.000000 0.000000 0.000000 
4.299168 17.390397 1.102281 -176.175867 -57.118937 -162.503917 -11.298078 2.125344 -4.716075 -14.298521 34.184930 -21.393069 -3.770967 -1.087054 -5.703874 1.761758 14.005518 2.824903 2.798800 -0.000000 -40.086000 9.202726 0.089871 4.820634 -1.888894 13.553996 -25.290504 2.849628 1.423424 -4.277611 1.366985 6.104287 15.241151 1.496100 -0.000000 -66.767300 1.463104 -6.053635 0.434927 0.380090 -6.125283 -1.806052 -4.259624 -6.196788 3.864162 13.533809 -20.039127 -7.966196 -1.014434 -0.061485 -0.121288 0.000000 0.000000 0.000000 29.777772 0.381458 3.589762 15.955140 -27.271440 -78.349835 0.467767 -2.044657 -0.008469 0.567707 11.280895 0.060463 -0.044442 -0.030552 -0.000000 0.000000 0.000000 0.000000 0.000000 0.000000 0.000000 9.359535 -21.455580 -2.952402 65.065937 15.052934 40.767338 179.962293 63.967925 179.956365 -7.199778 5.897906 -0.410444 0.155874 -0.490824 0.000000 0.000000 0.000000 0.000000 0.000000 0.000000 0.000000 
4.299651 17.395447 1.106572 -176.355617 -56.936633 -162.429555 -11.307410 2.134434 -4.726977 -14.344534 34.185768 -21.100057 -3.746406 -1.123038 -5.984516 1.873680 14.268813 3.058794 2.822500 0.000000 -39.910000 9.215975 0.059407 4.839558 -1.969834 13.525232 -25.288232 2.835515 1.396029 -4.283074 1.384961 6.353786 15.371013 1.613500 0.000000 -66.843300 1.535593 -5.875175 0.427151 0.334653 -5.963331 -1.798002 -4.434109 -6.024814 3.849753 13.209845 -20.050793 -7.705218 -1.173117 -0.077691 -0.056161 0.000000 0.000000 0.000000 29.702289 -0.097351 3.491268 13.946417 -26.649097 -70.736494 -0.004276 -6.500786 0.044664 -7.146367 9.863446 -0.632818 0.222515 0.047389 0.000000 0.000000 0.000000 0.000000 0.000000 0.000000 0.000000 9.288044 -21.342421 -3.020597 65.892292 13.637477 40.383476 -179.985385 63.933438 179.955840 -7.089631 5.883459 -0.402843 0.145001 -0.493274 0.000000 0.000000 0.000000 0.000000 0.000000 0.000000 0.000000 
4.302091 17.400293 1.111924 -176.554112 -56.803641 -162.365384 -11.301413 2.130837 -4.725836 -14.354613 34.089438 -21.002365 -3.727370 -1.116640 -5.744290 1.930872 14.565372 2.974498 2.849400 -0.000000 -39.706300 9.224235 0.036080 4.836102 -2.031111 13.440449 -25.223743 2.825576 1.373441 -4.315467 1.401969 6.588801 15.501156 1.724800 0.000000 -66.914200 1.659882 -5.700397 0.448150 0.288087 -5.808978 -1.785525 -4.652234 -5.858118 3.817033 12.873899 -20.032164 -7.429991 -1.341297 -0.094741 0.012659 0.000000 0.000000 0.000000 29.334931 -0.539845 3.377953 12.361251 -25.783097 -64.642454 -0.205420 -11.360926 0.084278 -11.934645 7.498472 -0.790684 0.379199 0.164047 0.000000 0.000000 0.000000 0.000000 0.000000 0.000000 0.000000 9.205961 -21.200949 -3.071175 66.795686 12.219989 39.965666 -179.939833 63.924211 179.955184 -7.001671 5.872034 -0.396832 0.135332 -0.496617 0.000000 0.000000 0.000000 0.000000 0.000000 0.000000 0.000000 
4.306386 17.404428 1.118806 -176.758725 -56.722609 -162.312710 -11.296281 2.122019 -4.716243 -14.332742 33.909705 -20.921669 -3.701263 -1.098598 -5.392405 1.980721 14.886963 2.802777 2.875200 0.000000 -39.481400 9.229721 0.023935 4.806979 -2.076591 13.309812 -25.106333 2.818343 1.355030 -4.365374 1.416506 6.797445 15.620595 1.824400 -0.000000 -66.984301 1.832136 -5.548125 0.504703 0.244745 -5.679738 -1.769588 -4.897874 -5.715496 3.765533 12.539978 -19.991762 -7.155215 -1.507400 -0.111522 0.081640 0.000000 0.000000 0.000000 28.721328 -0.863593 3.212662 11.088804 -24.867663 -60.036531 -0.190923 -16.509633 0.110044 -14.233706 5.153087 -0.626623 0.447447 0.280199 0.000000 0.000000 0.000000 0.000000 0.000000 0.000000 0.000000 9.107994 -21.022842 -3.101737 67.760675 10.860756 39.536786 -179.903953 63.959909 179.954536 -6.920723 5.867153 -0.391817 0.126647 -0.500527 0.000000 0.000000 0.000000 0.000000 0.000000 0.000000 0.000000 
4.312335 17.407472 1.127447 -176.963286 -56.691449 -162.269077 -11.295971 2.111112 -4.701483 -14.287266 33.663363 -20.815239 -3.667269 -1.077981 -5.050000 2.034473 15.215087 2.609195 2.895300 0.000000 -39.242900 9.233003 0.024446 4.753589 -2.112033 13.145806 -24.948926 2.812720 1.340421 -4.421764 1.427758 6.970562 15.719568 1.907200 -0.000000 -67.056600 2.046499 -5.427975 0.596998 0.206179 -5.584411 -1.752992 -5.161520 -5.606664 3.688214 12.211631 -19.936405 -6.884230 -1.665258 -0.127550 0.150372 0.000000 0.000000 0.000000 27.933274 -1.066161 2.968472 9.933863 -23.970261 -56.556007 -0.034398 -21.951849 0.122711 -14.579646 3.319075 -0.386892 0.454334 0.379304 0.000000 0.000000 0.000000 0.000000 0.000000 0.000000 0.000000 8.985218 -20.810612 -3.106276 68.776718 9.598156 39.118295 -179.880716 64.055291 179.954006 -6.834243 5.872775 -0.387098 0.118797 -0.504940 -0.000000 0.000000 0.000000 0.000000 0.000000 0.000000 0.000000 
4.319436 17.409203 1.137733 -177.162784 -56.706969 -162.230011 -11.299557 2.099364 -4.684520 -14.229216 33.370295 -20.694096 -3.629129 -1.055718 -4.726816 2.088658 15.527678 2.398238 2.905900 -0.000001 -39.000500 9.234199 0.036899 4.680626 -2.144299 12.962024 -24.765542 2.807629 1.329401 -4.477029 1.435069 7.099628 15.791506 1.969100 -0.000000 -67.133300 2.293386 -5.342277 0.720280 0.171746 -5.524541 -1.739571 -5.438772 -5.533661 3.574530 11.890445 -19.869668 -6.612756 -1.813219 -0.142812 0.220476 0.000000 0.000000 0.000000 27.039623 -1.196238 2.632138 8.739926 -23.068831 -53.826640 0.196437 -27.707698 0.121782 -13.275940 2.191152 -0.207452 0.417182 0.457734 -0.000000 0.000000 0.000000 0.000000 0.000000 0.000000 0.000000 8.834834 -20.569771 -3.078204 69.829833 8.445275 38.721358 -179.872209 64.216540 179.953660 -6.732958 5.892716 -0.382576 0.111655 -0.509943 -0.000000 0.000000 0.000000 0.000000 0.000000 0.000000 0.000000 
4.327354 17.409562 1.149422 -177.355162 -56.767102 -162.191460 -11.305782 2.087443 -4.668189 -14.168235 33.051814 -20.569205 -3.590640 -1.032828 -4.429949 2.139508 15.803082 2.176515 2.904100 -0.000001 -38.762800 9.233658 0.059278 4.593762 -2.178984 12.771135 -24.569567 2.801812 1.321330 -4.525325 1.437855 7.178212 15.833566 2.006900 0.000000 -67.213500 2.561689 -5.287586 0.868018 0.140249 -5.495894 -1.732246 -5.726136 -5.492430 3.417749 11.578223 -19.795508 -6.336302 -1.951794 -0.157440 0.293412 0.000000 0.000000 0.000000 26.096457 -1.310750 2.205888 7.426705 -22.127638 -51.594105 0.439492 -33.746029 0.105876 -10.554590 1.802474 -0.122464 0.347949 0.516225 0.000000 0.000000 0.000000 0.000000 0.000000 0.000000 0.000000 8.660743 -20.312523 -3.013758 70.902453 7.403462 38.349909 -179.878542 64.442939 179.953506 -6.615688 5.931064 -0.378146 0.105203 -0.515643 -0.000000 0.000000 0.000000 0.000000 0.000000 0.000000 0.000000 
4.335667 17.408604 1.161988 -177.543938 -56.869514 -162.140858 -11.312146 2.075824 -4.654225 -14.120655 32.727813 -20.455967 -3.555876 -1.011223 -4.165240 2.183595 16.024663 1.952860 2.889200 -0.000001 -38.537300 9.232786 0.088251 4.500075 -2.222669 12.578824 -24.384143 2.793686 1.314656 -4.554899 1.436391 7.211623 15.839755 2.022700 -0.000000 -67.298000 2.832911 -5.253929 1.029876 0.109788 -5.487183 -1.731420 -6.017394 -5.471496 3.223517 11.283107 -19.723007 -6.059546 -2.081695 -0.171407 0.367792 0.000000 0.000000 0.000000 25.153769 -1.410346 1.699888 5.971883 -21.218332 -49.758040 0.644668 -39.930423 0.074218 -6.702652 2.075739 -0.092393 0.257670 0.556221 0.000000 0.000000 0.000000 0.000000 0.000000 0.000000 0.000000 8.478476 -20.059975 -2.916399 71.972776 6.466026 37.996791 -179.897070 64.719917 179.953520 -6.486381 5.986430 -0.374111 0.099389 -0.521932 -0.000000 0.000000 0.000000 0.000000 0.000000 0.000000 0.000000 
4.344206 17.406524 1.175291 -177.724371 -57.012690 -162.082314 -11.318690 2.064159 -4.645877 -14.086076 32.417643 -20.357277 -3.527070 -0.991298 -3.934036 2.218103 16.178658 1.733598 2.860500 0.000000 -38.331500 9.231184 0.120791 4.404271 -2.276870 12.398786 -24.208849 2.782467 1.309192 -4.571559 1.429696 7.190632 15.816368 2.013501 -0.000000 -67.385100 3.104148 -5.232387 1.202276 0.081934 -5.489341 -1.735445 -6.304130 -5.461819 3.003011 11.000189 -19.652015 -5.787440 -2.202767 -0.184594 0.441764 0.000000 0.000000 0.000000 24.223401 -1.498251 1.146691 4.395318 -20.376844 -48.225593 0.771144 -46.142388 0.029285 -2.155140 2.853587 -0.046087 0.158567 0.579459 0.000000 0.000000 0.000000 0.000000 0.000000 0.000000 0.000000 8.285828 -19.828264 -2.794519 73.031186 5.628532 37.659441 -179.922183 65.040619 179.953603 -6.357030 6.063414 -0.371070 0.094115 -0.528708 -0.000000 0.000000 0.000000 0.000000 0.000000 0.000000 0.000000 
4.352610 17.403482 1.188646 -177.905705 -57.192586 -161.999546 -11.323297 2.053048 -4.642342 -14.080052 32.131819 -20.286400 -3.506814 -0.974969 -3.737757 2.241412 16.260692 1.526823 2.820300 -0.000000 -38.147399 9.230453 0.153465 4.312195 -2.345842 12.226473 -24.067798 2.767206 1.303070 -4.560856 1.419134 7.132904 15.758249 1.986599 0.000000 -67.473300 3.360000 -5.211113 1.373640 0.056622 -5.489627 -1.741545 -6.574459 -5.450576 2.778494 10.734425 -19.594954 -5.535577 -2.314472 -0.196701 0.510557 0.000000 0.000000 0.000000 23.328755 -1.521987 0.574551 2.694235 -19.740998 -46.958292 0.802833 -52.226213 -0.022659 2.570328 3.894090 0.071989 0.063679 0.588970 -0.000000 0.000000 0.000000 0.000000 0.000000 0.000000 0.000000 8.096589 -19.641540 -2.660988 74.058120 4.888075 37.331309 -179.948656 65.389037 179.953675 -6.241737 6.154007 -0.369524 0.089476 -0.535482 -0.000000 0.000000 0.000000 0.000000 0.000000 0.000000 0.000000 
4.360820 17.399786 1.201939 -178.085603 -57.405903 -161.896103 -11.326190 2.042115 -4.644896 -14.099527 31.878621 -20.243687 -3.495510 -0.962103 -3.573532 2.252883 16.269657 1.336925 2.770300 -0.000000 -37.987500 9.230220 0.184329 4.226719 -2.428796 12.070179 -23.957042 2.747823 1.296501 -4.532582 1.404194 7.033752 15.675689 1.941400 -0.000000 -67.560600 3.600165 -5.184116 1.540918 0.036477 -5.482353 -1.746970 -6.817104 -5.432462 2.568281 10.479775 -19.545748 -5.313041 -2.416217 -0.207531 0.571119 0.000000 0.000000 0.000000 22.477593 -1.464098 0.025517 0.846564 -19.361699 -45.901143 0.737566 -58.092222 -0.071824 6.845178 4.948818 0.260960 -0.014188 0.588660 -0.000000 0.000000 0.000000 0.000000 0.000000 0.000000 0.000000 7.905911 -19.499739 -2.529377 75.045672 4.236698 37.006523 -179.970268 65.755385 179.953602 -6.156023 6.258149 -0.370274 0.085444 -0.542016 0.000000 0.000000 0.000000 0.000000 0.000000 0.000000 0.000000 
